{
    "asset" : {
        "generator" : "Khronos glTF Blender I/O v3.3.27",
        "version" : "2.0"
    },
    "scene" : 0,
    "scenes" : [
        {
            "name" : "Scene",
            "nodes" : [
                0
            ]
        }
    ],
    "nodes" : [
        {
            "mesh" : 0,
            "name" : "rock"
        }
    ],
    "meshes" : [
        {
            "name" : "rock",
            "primitives" : [
                {
                    "attributes" : {
                        "POSITION" : 0,
                        "NORMAL" : 1,
                        "TEXCOORD_0" : 2
                    },
                    "indices" : 3
                }
            ]
        }
    ],
    "accessors" : [
        {
            "bufferView" : 0,
            "componentType" : 5126,
            "count" : 35746,
            "max" : [
                1.8811804056167603,
                1.7307237386703491,
                1.434301733970642
            ],
            "min" : [
                -1.1605027914047241,
                -1.8738396167755127,
                -1.6065467596054077
            ],
            "type" : "VEC3"
        },
        {
            "bufferView" : 1,
            "componentType" : 5126,
            "count" : 35746,
            "type" : "VEC3"
        },
        {
            "bufferView" : 2,
            "componentType" : 5126,
            "count" : 35746,
            "type" : "VEC2"
        },
        {
            "bufferView" : 3,
            "componentType" : 5123,
            "count" : 147456,
            "type" : "SCALAR"
        }
    ],
    "bufferViews" : [
        {
            "buffer" : 0,
            "byteLength" : 428952,
            "byteOffset" : 0,
            "target" : 34962
        },
        {
            "buffer" : 0,
            "byteLength" : 428952,
            "byteOffset" : 428952,
            "target" : 34962
        },
        {
            "buffer" : 0,
            "byteLength" : 285968,
            "byteOffset" : 857904,
            "target" : 34962
        },
        {
            "buffer" : 0,
            "byteLength" : 294912,
            "byteOffset" : 1143872,
            "target" : 34963
        }
    ],
    "buffers" : [
        {
            "byteLength" : 1438784,
            "uri" : "data:application/octet-stream;base64,"
        }
    ]
}
